<svg width="16" height="20" viewBox="0 0 16 20" fill="none" xmlns="http://www.w3.org/2000/svg">
<path d="M0.25 16.375V14.875H2.25V7.62499C2.25 6.25832 2.671 5.05399 3.513 4.01199C4.35433 2.97065 5.43333 2.29999 6.75 1.99999V1.29999C6.75 0.949988 6.871 0.653988 7.113 0.411988C7.35433 0.170654 7.65 0.0499878 8 0.0499878C8.35 0.0499878 8.64567 0.170654 8.887 0.411988C9.129 0.653988 9.25 0.949988 9.25 1.29999V1.99999C10.5667 2.29999 11.646 2.97065 12.488 4.01199C13.3293 5.05399 13.75 6.25832 13.75 7.62499V14.875H15.75V16.375H0.25ZM8 19.3C7.5 19.3 7.075 19.125 6.725 18.775C6.375 18.425 6.2 18 6.2 17.5H9.8C9.8 18 9.625 18.425 9.275 18.775C8.925 19.125 8.5 19.3 8 19.3ZM3.75 14.875H12.25V7.62499C12.25 6.44165 11.8373 5.43732 11.012 4.61199C10.1873 3.78732 9.18333 3.37499 8 3.37499C6.81667 3.37499 5.81267 3.78732 4.988 4.61199C4.16267 5.43732 3.75 6.44165 3.75 7.62499V14.875Z" fill="#5A6A85"/>
</svg>
