<svg width="24" height="25" viewBox="0 0 24 25" fill="none" xmlns="http://www.w3.org/2000/svg">
<path d="M6.3 22.4276C5.8 22.4276 5.375 22.2526 5.025 21.9026C4.675 21.5526 4.5 21.1276 4.5 20.6276V9.22755C4.5 8.72755 4.675 8.30255 5.025 7.95255C5.375 7.60255 5.8 7.42755 6.3 7.42755H8.25V7.17755C8.25 6.14422 8.61667 5.26088 9.35 4.52755C10.0833 3.79422 10.9667 3.42755 12 3.42755C13.0333 3.42755 13.9167 3.79422 14.65 4.52755C15.3833 5.26088 15.75 6.14422 15.75 7.17755V7.42755H17.7C18.2 7.42755 18.625 7.60255 18.975 7.95255C19.325 8.30255 19.5 8.72755 19.5 9.22755V20.6276C19.5 21.1276 19.325 21.5526 18.975 21.9026C18.625 22.2526 18.2 22.4276 17.7 22.4276H6.3ZM6.3 20.9276H17.7C17.7667 20.9276 17.8333 20.8942 17.9 20.8276C17.9667 20.7609 18 20.6942 18 20.6276V9.22755C18 9.16088 17.9667 9.09422 17.9 9.02755C17.8333 8.96089 17.7667 8.92755 17.7 8.92755H15.75V11.1776C15.75 11.3942 15.6793 11.5732 15.538 11.7146C15.396 11.8566 15.2167 11.9276 15 11.9276C14.7833 11.9276 14.6043 11.8566 14.463 11.7146C14.321 11.5732 14.25 11.3942 14.25 11.1776V8.92755H9.75V11.1776C9.75 11.3942 9.67933 11.5732 9.538 11.7146C9.396 11.8566 9.21667 11.9276 9 11.9276C8.78333 11.9276 8.60433 11.8566 8.463 11.7146C8.321 11.5732 8.25 11.3942 8.25 11.1776V8.92755H6.3C6.23333 8.92755 6.16667 8.96089 6.1 9.02755C6.03333 9.09422 6 9.16088 6 9.22755V20.6276C6 20.6942 6.03333 20.7609 6.1 20.8276C6.16667 20.8942 6.23333 20.9276 6.3 20.9276ZM9.75 7.42755H14.25V7.17755C14.25 6.54422 14.0333 6.01088 13.6 5.57755C13.1667 5.14422 12.6333 4.92755 12 4.92755C11.3667 4.92755 10.8333 5.14422 10.4 5.57755C9.96667 6.01088 9.75 6.54422 9.75 7.17755V7.42755ZM6 20.9276V8.92755V20.9276Z" fill="#5A6A85"/>
</svg>
