<svg width="28" height="20" viewBox="0 0 28 20" fill="none" xmlns="http://www.w3.org/2000/svg">
<path d="M14.9266 0.554868C14.0155 -0.182677 12.5384 -0.182677 11.6273 0.554868L1.61054 8.66367C0.699318 9.40132 0.699318 10.5973 1.61054 11.335L11.6273 19.4438C12.5384 20.1813 14.0155 20.1813 14.9266 19.4438C15.8377 18.7062 15.8377 17.5104 14.9266 16.7729L8.20921 11.335C7.29798 10.5973 7.29798 9.40132 8.20921 8.66367L14.9266 3.22576C15.8377 2.48821 15.8377 1.29241 14.9266 0.554868Z" fill="#DBCAA0"/>
<path d="M23.2939 0.554868L13.2772 8.66367C12.366 9.40132 12.366 10.5973 13.2772 11.335L23.2939 19.4438C24.205 20.1813 25.6822 20.1813 26.5933 19.4438C27.5044 18.7062 27.5044 17.5104 26.5933 16.7729L19.8759 11.335C18.9646 10.5973 18.9646 9.40132 19.8759 8.66367L26.5933 3.22576C27.5044 2.48821 27.5044 1.29241 26.5933 0.554868C25.6822 -0.182677 24.205 -0.182677 23.2939 0.554868Z" fill="#DBCAA0" fill-opacity="0.64"/>
</svg>
