<svg width="41" height="39" viewBox="0 0 41 39" fill="none" xmlns="http://www.w3.org/2000/svg">
<g filter="url(#filter0_d_103_199)">
<path d="M36.1181 15.88L34.4002 13.05L32.7571 12.7L33.9948 11.63L33.9734 8.36998L30.9645 6.71998L29.3641 7.18998L29.8655 5.68998L28.105 2.86998L24.6266 2.84998L23.485 4.00998L23.1222 2.46998L20.092 0.849976L17.0724 2.46998L16.699 4.00998L15.5573 2.84998L12.0789 2.86998L10.3184 5.68998L10.8305 7.18998L9.2194 6.71998L6.21051 8.36998L6.18917 11.63L7.43754 12.7L5.79438 13.05L4.07654 15.88L5.79438 18.71L7.43754 19.06L6.18917 20.13L6.21051 23.39L9.2194 25.04L10.8305 24.57L10.3184 26.08L12.0789 28.89L15.5573 28.91L16.699 27.75L17.0724 29.29L19.8145 30.76L20.092 30.91L20.6788 30.59L20.9029 30.47L23.1009 29.29L23.4636 27.75L24.6053 28.91L28.0837 28.89L29.8442 26.08L29.3427 24.57L30.9432 25.04L33.9521 23.39L33.9734 20.13L32.7357 19.06L34.3789 18.71L36.0967 15.88H36.1181ZM30.7085 7.95998L32.7037 9.05998V11.23L31.0072 12.31L27.4542 11.91L28.8626 8.81998L30.7191 7.96998L30.7085 7.95998ZM26.4298 20.09L27.5715 22.89L24.5733 21.82L24.7654 20.28L26.4298 20.09ZM26.4298 11.69L24.7867 11.51L24.5946 9.93997L27.5822 8.86998L26.4298 11.69ZM26.4939 17.5L27.8383 16.56L30.3137 18.45L27.1447 18.93L26.4939 17.5ZM27.8276 15.22L26.5045 14.29L27.1661 12.84L30.3243 13.31L27.8276 15.21V15.22ZM25.0748 4.04998H27.3901L28.5638 5.93998L27.6462 7.67998L24.3492 8.99998L23.9224 5.66998L25.0748 4.05998V4.04998ZM23.3569 9.27997L21.8312 9.88998L20.8282 8.62998L22.8448 6.29998L23.3569 9.27997ZM18.0967 3.29998L20.1026 2.22998L22.1192 3.29998L22.2579 5.22998L20.1026 7.91998L17.958 5.22998L18.0967 3.29998ZM17.3712 6.29998L19.3984 8.63998L18.4061 9.88998L16.859 9.25998L17.3712 6.29998ZM12.8258 4.05998H15.1412L16.2935 5.64998L15.8667 8.97997L12.5697 7.65998L11.6628 5.91998L12.8365 4.04998L12.8258 4.05998ZM15.4186 20.26L15.6106 21.83L12.6231 22.9L13.8074 19.99L13.7754 20.09L15.4186 20.27V20.26ZM12.3777 16.54L13.7007 17.47L13.0392 18.92L9.88093 18.45L12.3777 16.55V16.54ZM12.367 15.2L9.8916 13.3L13.0605 12.83L13.7221 14.25L12.367 15.2ZM13.7648 11.66L12.6231 8.85997L15.632 9.92998L15.4399 11.47L13.7648 11.66ZM7.49089 9.04998L9.48615 7.94998L11.3427 8.79998L12.7511 11.89L9.19806 12.29L7.48022 11.21V9.03998L7.49089 9.04998ZM6.67998 17.76L5.53831 15.88L6.67998 13.99L8.73926 13.86L11.6094 15.87L8.73926 17.88L6.67998 17.75V17.76ZM9.48615 23.8L7.49089 22.7V20.53L9.18739 19.45L12.7404 19.85L11.332 22.94L9.47548 23.79L9.48615 23.8ZM15.1412 27.72H12.8258L11.6521 25.83L12.5591 24.09L15.856 22.77L16.2828 26.1L15.1305 27.71L15.1412 27.72ZM16.859 22.49L18.3741 21.88L19.3878 23.14L19.4624 23.05L19.3771 23.14L17.3605 25.47L16.8483 22.49H16.859ZM22.1192 28.61L20.1026 29.68L18.0967 28.61L17.9473 26.55L20.1026 23.86L22.2579 26.55L22.1086 28.61H22.1192ZM22.8448 25.47L20.8175 23.13L21.8098 21.89L23.3463 22.51L22.8341 25.47H22.8448ZM23.3996 18.98L23.1755 20.88L21.3083 20.11L20.1026 21.65L18.8969 20.11L17.0297 20.88L16.8057 18.98L14.7784 18.77L15.6 17.02L13.9568 15.89L15.6 14.76L14.7784 13.01L16.8057 12.8L17.0297 10.9L18.8969 11.67L20.1026 10.13L21.3083 11.67L23.1755 10.9L23.3996 12.8L25.4269 13.01L24.6053 14.76L26.2485 15.89L24.6053 17.02L25.4269 18.77L23.3996 18.98ZM28.6278 25.96L27.6569 24.11H27.6462L28.5531 25.84L27.3901 27.71H25.0748L23.9224 26.12L24.3492 22.79L27.6462 24.11H27.6676L28.6385 25.97L28.6278 25.96ZM32.7144 22.71L30.7191 23.81L28.8626 22.96L27.4542 19.87L31.0072 19.47L32.7144 20.55V22.72V22.71ZM31.466 17.9L28.5958 15.89L31.466 13.88L33.5253 14.01L34.667 15.89L33.5253 17.78L31.466 17.91V17.9Z" fill="#5A6A85"/>
</g>
<defs>
<filter id="filter0_d_103_199" x="0.0765381" y="0.849976" width="40.0415" height="38.06" filterUnits="userSpaceOnUse" color-interpolation-filters="sRGB">
<feFlood flood-opacity="0" result="BackgroundImageFix"/>
<feColorMatrix in="SourceAlpha" type="matrix" values="0 0 0 0 0 0 0 0 0 0 0 0 0 0 0 0 0 0 127 0" result="hardAlpha"/>
<feOffset dy="4"/>
<feGaussianBlur stdDeviation="2"/>
<feComposite in2="hardAlpha" operator="out"/>
<feColorMatrix type="matrix" values="0 0 0 0 0 0 0 0 0 0 0 0 0 0 0 0 0 0 0.25 0"/>
<feBlend mode="normal" in2="BackgroundImageFix" result="effect1_dropShadow_103_199"/>
<feBlend mode="normal" in="SourceGraphic" in2="effect1_dropShadow_103_199" result="shape"/>
</filter>
</defs>
</svg>
