<svg width="112" height="29" viewBox="0 0 112 29" fill="none" xmlns="http://www.w3.org/2000/svg">
<rect width="112" height="29" fill="white"/>
<path d="M19.3163 5.40652V19.3333C19.3163 20.1913 19.488 20.5611 19.8838 20.783V20.9531H16.8075V20.783C17.1808 20.5611 17.375 20.1913 17.375 19.3333V4.4968L10.528 16.2418H10.304L3.22563 5.53225V18.0094C3.22563 19.0671 3.9723 20.3688 4.78617 20.783V20.9531H1.4635V20.783C2.28483 20.3688 3.02403 19.0671 3.02403 18.0094V5.28818L1.9115 3.76459H4.14403L11.2598 14.6442L17.584 3.76459H19.8912V3.96428C19.4955 4.18616 19.3238 4.52638 19.3238 5.41391L19.3163 5.40652Z" fill="#5A6A85"/>
<path d="M33.3088 20.5833H30.8075V17.1441C30.1653 19.3037 28.7989 20.7312 26.4171 20.7312C24.3861 20.7312 22.4 19.7697 22.0789 18.002C21.6608 15.4948 23.1691 14.0229 25.0805 13.239C24.4384 11.8115 25.2075 8.77173 28.5301 8.77173C30.5909 8.77173 32.7712 9.85156 32.7712 12.8765V18.9709C32.7712 19.8289 32.9429 20.1987 33.3163 20.4205V20.5907L33.3088 20.5833ZM30.8075 16.7003V12.9209C30.6805 12.8692 30.0907 12.699 29.3216 12.699C26.6187 12.699 22.9451 14.0229 24.0128 18.3496C24.3339 19.6735 25.7749 20.4871 27.0144 20.4131C29.1723 20.2874 30.3147 18.4754 30.8075 16.7003ZM25.3269 13.1354C26.6635 12.6473 28.1568 12.4698 29.3216 12.4698C29.8891 12.4698 30.3893 12.5659 30.8075 12.6916V12.5215C30.8075 10.6577 30.0608 9.0084 28.3061 9.0084C26.0736 9.0084 24.5877 11.1459 25.3269 13.1354Z" fill="#5A6A85"/>
<path d="M82.7157 17.0553C82.5664 18.8008 81.0059 21.1084 77.4816 21.1084C73.9573 21.1084 70.7616 19.4369 70.6645 15.3838C70.5376 11.1311 74.4352 9.28946 77.1605 9.14154C79.2661 9.04539 82.1707 10.0513 82.5141 13.0245H80.2069C81.6181 13.3943 82.9099 14.8143 82.7083 17.0553H82.7157ZM79.1915 13.0245H72.7701C72.4491 14.3262 72.5237 15.7758 72.9419 16.9518C73.8603 19.533 75.7195 20.6646 78.2507 20.5611C80.3861 20.4649 82.2453 19.0153 82.4917 17.0997C82.7904 14.5481 81.0805 13.0245 79.1915 13.0245ZM72.8149 12.8248H80.7221C80.4011 10.6873 78.4672 8.97143 76.0331 9.43738C74.3456 9.75541 73.2555 11.1533 72.8075 12.8248H72.8149Z" fill="#5A6A85"/>
<path d="M96.7755 13.9786C96.9473 20.073 91.2427 21.101 88.4651 21.101C87.1734 21.101 86.2102 20.5611 85.7099 20.5833C85.3665 20.6055 85.2395 20.9235 85.1873 21.101H85.0379V5.14028C85.0379 4.28234 84.9633 4.03827 84.4705 3.96431V3.76461L86.8299 3.24689H87.0017V15.872C87.4497 13.0245 88.7115 9.14156 92.1835 9.14156C94.2145 9.14156 96.6934 10.8574 96.7681 13.9786H96.7755ZM94.8641 13.6384C94.7371 11.5009 93.199 9.17114 91.0934 9.58532C88.2934 10.1252 87.0017 15.2581 87.0017 17.3216V20.7386C87.1286 20.7904 87.6961 20.9827 88.4875 20.9605C90.8694 20.9383 95.2075 19.9028 94.8641 13.6384Z" fill="#5A6A85"/>
<path d="M98.7391 5.99821C98.7391 5.36215 99.2618 4.84442 99.9039 4.84442C100.546 4.84442 101.069 5.36215 101.069 5.99821C101.069 6.63427 100.546 7.152 99.9039 7.152C99.2618 7.152 98.7391 6.63427 98.7391 5.99821Z" fill="#5A6A85"/>
<path d="M110.537 20.783V20.9531H107.46V20.783C107.856 20.5611 107.953 20.1469 107.878 19.3333C107.804 18.5198 107.43 14.3706 107.311 13.0911C107.139 11.2494 106.221 9.16374 104.085 9.57792C101.308 10.1178 100.785 15.2507 100.785 17.3142V19.3259C100.785 20.1839 100.957 20.5537 101.353 20.7756V20.9457H98.2762V20.7756C98.6496 20.5537 98.8213 20.1839 98.8213 19.3259V11.0202C98.8213 10.1622 98.7466 9.91814 98.2762 9.84418V9.67407L100.606 9.13416H100.778V15.2285C101.099 12.4772 101.942 9.13416 105.168 9.13416C107.199 9.13416 108.939 10.5098 109.237 13.4609C109.484 15.8424 109.73 18.4236 109.835 19.3333C109.932 20.2209 110.156 20.5611 110.529 20.783H110.537Z" fill="#5A6A85"/>
<path d="M67.5733 9.11193C67.424 9.09714 67.2746 9.08975 67.1104 9.09714C65.2064 9.11193 64.3328 11.0127 63.9072 13.1946C63.7504 13.8676 63.6533 14.5628 63.5861 15.2211L63.4965 3.23206H63.3024L60.9728 3.76457V3.95687C61.473 4.02344 61.5477 4.2749 61.5552 5.13285L61.6597 19.3259C61.6597 19.7031 61.6298 19.9842 61.5626 20.1986C61.5626 20.2282 61.5402 20.2578 61.5328 20.2874C61.4805 20.4279 61.3984 20.5389 61.3013 20.635C61.264 20.672 61.2192 20.7016 61.1744 20.7386C61.152 20.7534 61.1221 20.7681 61.0997 20.7829C61.0997 20.8347 61.0997 20.953 61.0997 20.953L64.176 20.9383C64.176 20.9383 64.176 20.8199 64.176 20.7681C64.176 20.7681 64.1312 20.7386 64.1088 20.7238C64.064 20.6942 64.0266 20.6572 63.9818 20.6202C63.8922 20.5315 63.8101 20.4205 63.7578 20.28C63.7504 20.2504 63.7354 20.2208 63.728 20.1912C63.6608 19.9768 63.6234 19.6957 63.6234 19.3185V18.3644C63.6085 17.3364 63.6682 15.2803 64.0341 13.4091C64.2133 12.455 64.4672 11.5526 64.833 10.8574C65.1392 10.2583 65.5349 9.81456 66.0128 9.62966C66.1098 9.59268 66.2069 9.56309 66.3114 9.5483C66.4757 9.52611 66.625 9.52611 66.7744 9.5557C67.8122 9.77018 68.3648 11.316 68.417 12.5511L68.5962 12.6473L69.6266 11.1828L70.0896 10.5246C69.3354 9.66664 68.656 9.20808 67.5882 9.11193H67.5733Z" fill="#5A6A85"/>
<path d="M55.5594 22.5358C54.2976 22.5876 52.7594 23.8671 50.9226 24.9396C49.3322 25.901 47.8986 26.8551 46.6368 26.833C45.7184 26.833 45.2928 26.2487 45.248 25.4351C45.1658 24.481 45.9498 23.8967 46.9504 23.5935L47.361 23.3568C47.1594 23.3938 46.9578 23.4308 46.7562 23.4825C45.3002 23.8375 43.8666 24.5919 43.9114 25.7531C43.9338 26.8847 44.9269 27.3507 46.241 27.2545C47.4058 27.1806 48.6453 26.5445 49.7877 25.8567C50.385 26.6702 51.2512 27.6243 53.0357 27.6243C55.1413 27.6243 57.6202 26.3744 57.6202 24.4292C57.6202 23.3494 57.0528 22.5136 55.5594 22.5358ZM56.1045 24.8434C56.0074 26.4631 54.9397 27.4764 53.0282 27.4468C51.1914 27.4246 50.4224 26.4114 49.952 25.7235C50.3253 25.5017 50.6986 25.2798 51.072 25.0653C52.5056 24.1778 54.096 23.1275 54.865 23.024C55.8581 22.8761 56.1568 23.7118 56.1045 24.836V24.8434Z" fill="#5A6A85"/>
<path d="M58.1653 12.4846L56.9632 10.3915L55.8133 10.1326L56.6795 9.34125L56.6645 6.93013L54.5589 5.70978L53.4389 6.0574L53.7899 4.94799L52.5579 2.86229L50.1237 2.8475L49.3248 3.70545L49.0709 2.56645L46.9504 1.36829L44.8373 2.56645L44.576 3.70545L43.7771 2.8475L41.3429 2.86229L40.1109 4.94799L40.4693 6.0574L39.3419 5.70978L37.2363 6.93013L37.2213 9.34125L38.0949 10.1326L36.9451 10.3915L35.7429 12.4846L36.9451 14.5777L38.0949 14.8365L37.2213 15.6279L37.2363 18.039L39.3419 19.2594L40.4693 18.9118L40.1109 20.0286L41.3429 22.1069L43.7771 22.1217L44.576 21.2637L44.8373 22.4027L46.7563 23.4899L46.9504 23.6009L47.3611 23.3642L47.5179 23.2755L49.056 22.4027L49.3099 21.2637L50.1088 22.1217L52.5429 22.1069L53.7749 20.0286L53.424 18.9118L54.544 19.2594L56.6496 18.039L56.6645 15.6279L55.7984 14.8365L56.9483 14.5777L58.1504 12.4846H58.1653ZM54.3797 6.62689L55.776 7.44046V9.04541L54.5888 9.84419L52.1024 9.54834L53.088 7.26296L54.3872 6.63429L54.3797 6.62689ZM51.3856 15.5983L52.1845 17.6692L50.0864 16.8779L50.2208 15.7389L51.3856 15.5983ZM51.3856 9.38563L50.2357 9.2525L50.1013 8.09132L52.192 7.29994L51.3856 9.38563ZM51.4304 13.6827L52.3712 12.9875L54.1035 14.3854L51.8859 14.7404L51.4304 13.6827ZM52.3637 11.9964L51.4379 11.3086L51.9008 10.2362L54.1109 10.5838L52.3637 11.989V11.9964ZM50.4373 3.73503H52.0576L52.8789 5.13289L52.2368 6.4198L49.9296 7.39609L49.6309 4.93319L50.4373 3.74243V3.73503ZM49.2352 7.60318L48.1675 8.05434L47.4656 7.12243L48.8768 5.39915L49.2352 7.60318ZM45.5541 3.18032L46.9579 2.38894L48.3691 3.18032L48.4661 4.60777L46.9579 6.59731L45.4571 4.60777L45.5541 3.18032ZM45.0464 5.39915L46.4651 7.12983L45.7707 8.05434L44.688 7.58838L45.0464 5.39915ZM41.8656 3.74243H43.4859L44.2923 4.9184L43.9936 7.38129L41.6864 6.40501L41.0517 5.1181L41.8731 3.73503L41.8656 3.74243ZM43.68 15.7241L43.8144 16.8852L41.7237 17.6766L42.5525 15.5244L42.5301 15.5983L43.68 15.7315V15.7241ZM41.552 12.9727L42.4779 13.6606L42.0149 14.733L39.8048 14.3854L41.552 12.9801V12.9727ZM41.5445 11.9817L39.8123 10.5764L42.0299 10.2288L42.4928 11.279L41.5445 11.9817ZM42.5227 9.36344L41.7237 7.29254L43.8293 8.08392L43.6949 9.22292L42.5227 9.36344ZM38.1323 7.43307L39.5285 6.6195L40.8277 7.24816L41.8133 9.53355L39.3269 9.82939L38.1248 9.03062V7.42567L38.1323 7.43307ZM37.5648 13.875L36.7659 12.4846L37.5648 11.0867L39.0059 10.9906L41.0144 12.4772L39.0059 13.9638L37.5648 13.8676V13.875ZM39.5285 18.3423L38.1323 17.5287V15.9238L39.3195 15.125L41.8059 15.4208L40.8203 17.7062L39.5211 18.3349L39.5285 18.3423ZM43.4859 21.2415H41.8656L41.0443 19.8437L41.6789 18.5568L43.9861 17.5805L44.2848 20.0434L43.4784 21.2341L43.4859 21.2415ZM44.688 17.3734L45.7483 16.9222L46.4576 17.8541L46.5099 17.7876L46.4501 17.8541L45.0389 19.5774L44.6805 17.3734H44.688ZM48.3691 21.8998L46.9579 22.6912L45.5541 21.8998L45.4496 20.3762L46.9579 18.3867L48.4661 20.3762L48.3616 21.8998H48.3691ZM48.8768 19.5774L47.4581 17.8467L48.1525 16.9296L49.2277 17.3882L48.8693 19.5774H48.8768ZM49.2651 14.7774L49.1083 16.1826L47.8016 15.6131L46.9579 16.7521L46.1141 15.6131L44.8075 16.1826L44.6507 14.7774L43.232 14.622L43.8069 13.3277L42.6571 12.492L43.8069 11.6562L43.232 10.3619L44.6507 10.2066L44.8075 8.80134L46.1141 9.37084L46.9579 8.23184L47.8016 9.37084L49.1083 8.80134L49.2651 10.2066L50.6837 10.3619L50.1088 11.6562L51.2587 12.492L50.1088 13.3277L50.6837 14.622L49.2651 14.7774ZM52.9237 19.9398L52.2443 18.5716H52.2368L52.8715 19.8511L52.0576 21.2341H50.4373L49.6309 20.0582L49.9296 17.5953L52.2368 18.5716H52.2517L52.9312 19.9472L52.9237 19.9398ZM55.7835 17.5361L54.3872 18.3497L53.088 17.721L52.1024 15.4356L54.5888 15.1398L55.7835 15.9385V17.5435V17.5361ZM54.9099 13.9786L52.9013 12.492L54.9099 11.0054L56.3509 11.1015L57.1499 12.492L56.3509 13.8898L54.9099 13.986V13.9786Z" fill="#5A6A85"/>
</svg>
