<svg width="164" height="46" viewBox="0 0 164 46" fill="none" xmlns="http://www.w3.org/2000/svg">
<g filter="url(#filter0_d_103_188)">
<path d="M29.6029 7.31003V26.14C29.6029 27.3 29.8483 27.8 30.4138 28.1V28.33H26.0178V28.1C26.5513 27.8 26.8287 27.3 26.8287 26.14V6.08003L17.0445 21.96H16.7244L6.60939 7.48003V24.35C6.60939 25.78 7.67637 27.54 8.83939 28.1V28.33H4.09131V28.1C5.26499 27.54 6.3213 25.78 6.3213 24.35V7.15003L4.7315 5.09003H7.92178L18.0901 19.8L27.1275 5.09003H30.4245V5.36003C29.859 5.66003 29.6136 6.12003 29.6136 7.32003L29.6029 7.31003Z" fill="#5A6A85"/>
<path d="M49.5981 27.83H46.0237V23.18C45.1061 26.1 43.1535 28.03 39.7499 28.03C36.8477 28.03 34.0095 26.73 33.5507 24.34C32.9532 20.95 35.1085 18.96 37.84 17.9C36.9224 15.97 38.0213 11.86 42.7694 11.86C45.7143 11.86 48.8299 13.32 48.8299 17.41V25.65C48.8299 26.81 49.0753 27.31 49.6088 27.61V27.84L49.5981 27.83ZM46.0237 22.58V17.47C45.8423 17.4 44.9994 17.17 43.9004 17.17C40.0379 17.17 34.7884 18.96 36.3142 24.81C36.773 26.6 38.8323 27.7 40.6034 27.6C43.687 27.43 45.3195 24.98 46.0237 22.58ZM38.1921 17.76C40.102 17.1 42.2359 16.86 43.9004 16.86C44.7113 16.86 45.4262 16.99 46.0237 17.16V16.93C46.0237 14.41 44.9567 12.18 42.4493 12.18C39.259 12.18 37.1358 15.07 38.1921 17.76Z" fill="#5A6A85"/>
<path d="M120.2 23.06C119.987 25.42 117.757 28.54 112.721 28.54C107.685 28.54 103.118 26.28 102.979 20.8C102.798 15.05 108.368 12.56 112.262 12.36C115.271 12.23 119.422 13.59 119.912 17.61H116.615C118.632 18.11 120.478 20.03 120.19 23.06H120.2ZM115.164 17.61H105.988C105.529 19.37 105.636 21.33 106.234 22.92C107.546 26.41 110.203 27.94 113.82 27.8C116.871 27.67 119.528 25.71 119.88 23.12C120.307 19.67 117.864 17.61 115.164 17.61ZM106.052 17.34H117.352C116.893 14.45 114.129 12.13 110.651 12.76C108.24 13.19 106.682 15.08 106.042 17.34H106.052Z" fill="#5A6A85"/>
<path d="M140.292 18.9C140.537 27.14 132.385 28.53 128.416 28.53C126.57 28.53 125.194 27.8 124.479 27.83C123.988 27.86 123.807 28.29 123.732 28.53H123.519V6.95001C123.519 5.79001 123.412 5.46001 122.708 5.36001V5.09001L126.08 4.39001H126.325V21.46C126.965 17.61 128.768 12.36 133.73 12.36C136.632 12.36 140.174 14.68 140.281 18.9H140.292ZM137.56 18.44C137.379 15.55 135.181 12.4 132.172 12.96C128.171 13.69 126.325 20.63 126.325 23.42V28.04C126.506 28.11 127.317 28.37 128.448 28.34C131.852 28.31 138.051 26.91 137.56 18.44Z" fill="#5A6A85"/>
<path d="M143.098 8.10999C143.098 7.24999 143.845 6.54999 144.762 6.54999C145.68 6.54999 146.427 7.24999 146.427 8.10999C146.427 8.96999 145.68 9.66999 144.762 9.66999C143.845 9.66999 143.098 8.96999 143.098 8.10999Z" fill="#5A6A85"/>
<path d="M159.956 28.1V28.33H155.56V28.1C156.126 27.8 156.265 27.24 156.158 26.14C156.051 25.04 155.518 19.43 155.347 17.7C155.102 15.21 153.789 12.39 150.738 12.95C146.768 13.68 146.021 20.62 146.021 23.41V26.13C146.021 27.29 146.267 27.79 146.832 28.09V28.32H142.436V28.09C142.97 27.79 143.215 27.29 143.215 26.13V14.9C143.215 13.74 143.109 13.41 142.436 13.31V13.08L145.765 12.35H146.011V20.59C146.47 16.87 147.675 12.35 152.285 12.35C155.187 12.35 157.673 14.21 158.1 18.2C158.452 21.42 158.804 24.91 158.953 26.14C159.092 27.34 159.412 27.8 159.946 28.1H159.956Z" fill="#5A6A85"/>
<path d="M98.562 12.32C98.3486 12.3 98.1352 12.29 97.9005 12.3C95.1797 12.32 93.9313 14.89 93.3231 17.84C93.0991 18.75 92.9604 19.69 92.8643 20.58L92.7363 4.37H92.4589L89.1299 5.09V5.35C89.8448 5.44 89.9515 5.78 89.9621 6.94L90.1115 26.13C90.1115 26.64 90.0688 27.02 89.9728 27.31C89.9728 27.35 89.9408 27.39 89.9301 27.43C89.8554 27.62 89.7381 27.77 89.5994 27.9C89.546 27.95 89.482 27.99 89.418 28.04C89.386 28.06 89.3433 28.08 89.3113 28.1C89.3113 28.17 89.3113 28.33 89.3113 28.33L93.7072 28.31C93.7072 28.31 93.7072 28.15 93.7072 28.08C93.7072 28.08 93.6432 28.04 93.6112 28.02C93.5472 27.98 93.4938 27.93 93.4298 27.88C93.3018 27.76 93.1844 27.61 93.1097 27.42C93.0991 27.38 93.0777 27.34 93.067 27.3C92.971 27.01 92.9177 26.63 92.9177 26.12V24.83C92.8963 23.44 92.9817 20.66 93.5045 18.13C93.7606 16.84 94.1234 15.62 94.6462 14.68C95.0837 13.87 95.6492 13.27 96.332 13.02C96.4707 12.97 96.6094 12.93 96.7588 12.91C96.9935 12.88 97.2069 12.88 97.4203 12.92C98.9035 13.21 99.693 15.3 99.7677 16.97L100.024 17.1L101.496 15.12L102.158 14.23C101.08 13.07 100.109 12.45 98.5834 12.32H98.562Z" fill="#5A6A85"/>
<path d="M81.3943 30.4699C79.5911 30.5399 77.3931 32.2699 74.7683 33.7199C72.4956 35.0199 70.447 36.3099 68.6438 36.2799C67.3314 36.2799 66.7232 35.4899 66.6592 34.3899C66.5419 33.0999 67.6622 32.3099 69.0919 31.8999L69.6788 31.5799C69.3907 31.6299 69.1026 31.6799 68.8145 31.7499C66.7339 32.2299 64.6853 33.2499 64.7493 34.8199C64.7813 36.3499 66.2004 36.9799 68.0783 36.8499C69.7428 36.7499 71.514 35.8899 73.1465 34.9599C74.0001 36.0599 75.2378 37.3499 77.7879 37.3499C80.7968 37.3499 84.3391 35.6599 84.3391 33.0299C84.3391 31.5699 83.5282 30.4399 81.3943 30.4699ZM82.1732 33.5899C82.0345 35.7799 80.5087 37.1499 77.7772 37.1099C75.1524 37.0799 74.0534 35.7099 73.3812 34.7799C73.9147 34.4799 74.4482 34.1799 74.9817 33.8899C77.0303 32.6899 79.303 31.2699 80.402 31.1299C81.8211 30.9299 82.2479 32.0599 82.1732 33.5799V33.5899Z" fill="#5A6A85"/>
<path d="M85.1181 16.88L83.4002 14.05L81.7571 13.7L82.9948 12.63L82.9734 9.36998L79.9645 7.71998L78.3641 8.18998L78.8655 6.68998L77.105 3.86998L73.6266 3.84998L72.485 5.00998L72.1222 3.46998L69.092 1.84998L66.0724 3.46998L65.699 5.00998L64.5573 3.84998L61.0789 3.86998L59.3184 6.68998L59.8305 8.18998L58.2194 7.71998L55.2105 9.36998L55.1892 12.63L56.4375 13.7L54.7944 14.05L53.0765 16.88L54.7944 19.71L56.4375 20.06L55.1892 21.13L55.2105 24.39L58.2194 26.04L59.8305 25.57L59.3184 27.08L61.0789 29.89L64.5573 29.91L65.699 28.75L66.0724 30.29L68.8145 31.76L69.092 31.91L69.6788 31.59L69.9029 31.47L72.1009 30.29L72.4636 28.75L73.6053 29.91L77.0837 29.89L78.8442 27.08L78.3427 25.57L79.9432 26.04L82.9521 24.39L82.9734 21.13L81.7357 20.06L83.3789 19.71L85.0967 16.88H85.1181ZM79.7085 8.95998L81.7037 10.06V12.23L80.0072 13.31L76.4542 12.91L77.8626 9.81998L79.7191 8.96998L79.7085 8.95998ZM75.4298 21.09L76.5715 23.89L73.5733 22.82L73.7654 21.28L75.4298 21.09ZM75.4298 12.69L73.7867 12.51L73.5946 10.94L76.5822 9.86998L75.4298 12.69ZM75.4939 18.5L76.8383 17.56L79.3137 19.45L76.1447 19.93L75.4939 18.5ZM76.8276 16.22L75.5045 15.29L76.1661 13.84L79.3243 14.31L76.8276 16.21V16.22ZM74.0748 5.04998H76.3901L77.5638 6.93998L76.6462 8.67998L73.3492 9.99998L72.9224 6.66998L74.0748 5.05998V5.04998ZM72.3569 10.28L70.8312 10.89L69.8282 9.62998L71.8448 7.29998L72.3569 10.28ZM67.0967 4.29998L69.1026 3.22998L71.1192 4.29998L71.2579 6.22998L69.1026 8.91998L66.958 6.22998L67.0967 4.29998ZM66.3712 7.29998L68.3984 9.63998L67.4061 10.89L65.859 10.26L66.3712 7.29998ZM61.8258 5.05998H64.1412L65.2935 6.64998L64.8667 9.97997L61.5697 8.65998L60.6628 6.91998L61.8365 5.04998L61.8258 5.05998ZM64.4186 21.26L64.6106 22.83L61.6231 23.9L62.8074 20.99L62.7754 21.09L64.4186 21.27V21.26ZM61.3777 17.54L62.7007 18.47L62.0392 19.92L58.8809 19.45L61.3777 17.55V17.54ZM61.367 16.2L58.8916 14.3L62.0605 13.83L62.7221 15.25L61.367 16.2ZM62.7648 12.66L61.6231 9.85997L64.632 10.93L64.4399 12.47L62.7648 12.66ZM56.4909 10.05L58.4861 8.94998L60.3427 9.79998L61.7511 12.89L58.1981 13.29L56.4802 12.21V10.04L56.4909 10.05ZM55.68 18.76L54.5383 16.88L55.68 14.99L57.7393 14.86L60.6094 16.87L57.7393 18.88L55.68 18.75V18.76ZM58.4861 24.8L56.4909 23.7V21.53L58.1874 20.45L61.7404 20.85L60.332 23.94L58.4755 24.79L58.4861 24.8ZM64.1412 28.72H61.8258L60.6521 26.83L61.5591 25.09L64.856 23.77L65.2828 27.1L64.1305 28.71L64.1412 28.72ZM65.859 23.49L67.3741 22.88L68.3878 24.14L68.4624 24.05L68.3771 24.14L66.3605 26.47L65.8483 23.49H65.859ZM71.1192 29.61L69.1026 30.68L67.0967 29.61L66.9473 27.55L69.1026 24.86L71.2579 27.55L71.1086 29.61H71.1192ZM71.8448 26.47L69.8175 24.13L70.8098 22.89L72.3463 23.51L71.8341 26.47H71.8448ZM72.3996 19.98L72.1755 21.88L70.3083 21.11L69.1026 22.65L67.8969 21.11L66.0297 21.88L65.8057 19.98L63.7784 19.77L64.6 18.02L62.9568 16.89L64.6 15.76L63.7784 14.01L65.8057 13.8L66.0297 11.9L67.8969 12.67L69.1026 11.13L70.3083 12.67L72.1755 11.9L72.3996 13.8L74.4269 14.01L73.6053 15.76L75.2485 16.89L73.6053 18.02L74.4269 19.77L72.3996 19.98ZM77.6278 26.96L76.6569 25.11H76.6462L77.5531 26.84L76.3901 28.71H74.0748L72.9224 27.12L73.3492 23.79L76.6462 25.11H76.6676L77.6385 26.97L77.6278 26.96ZM81.7144 23.71L79.7191 24.81L77.8626 23.96L76.4542 20.87L80.0072 20.47L81.7144 21.55V23.72V23.71ZM80.466 18.9L77.5958 16.89L80.466 14.88L82.5253 15.01L83.667 16.89L82.5253 18.78L80.466 18.91V18.9Z" fill="#5A6A85"/>
</g>
<defs>
<filter id="filter0_d_103_188" x="-2" y="0" width="168.048" height="47.21" filterUnits="userSpaceOnUse" color-interpolation-filters="sRGB">
<feFlood flood-opacity="0" result="BackgroundImageFix"/>
<feColorMatrix in="SourceAlpha" type="matrix" values="0 0 0 0 0 0 0 0 0 0 0 0 0 0 0 0 0 0 127 0" result="hardAlpha"/>
<feOffset dy="4"/>
<feGaussianBlur stdDeviation="2"/>
<feComposite in2="hardAlpha" operator="out"/>
<feColorMatrix type="matrix" values="0 0 0 0 0 0 0 0 0 0 0 0 0 0 0 0 0 0 0.25 0"/>
<feBlend mode="normal" in2="BackgroundImageFix" result="effect1_dropShadow_103_188"/>
<feBlend mode="normal" in="SourceGraphic" in2="effect1_dropShadow_103_188" result="shape"/>
</filter>
</defs>
</svg>
